Coordinates
version=1
nRows=7
nColumns=63
inDegrees=yes

Units are S.I. units (second, meters, Newtons, ...)
If the header above contains a line with 'inDegrees', this indicates whether rotational values are in degrees (yes) or radians (no).

endheader
time	pelvis_tilt	pelvis_list	pelvis_rotation	pelvis_tx	pelvis_ty	pelvis_tz	hip_flexion_r	hip_adduction_r	hip_rotation_r	knee_angle_r	knee_angle_r_beta	ankle_angle_r	subtalar_angle_r	mtp_angle_r	hip_flexion_l	hip_adduction_l	hip_rotation_l	knee_angle_l	knee_angle_l_beta	ankle_angle_l	subtalar_angle_l	mtp_angle_l	L5_S1_Flex_Ext	L5_S1_Lat_Bending	L5_S1_axial_rotation	L4_L5_Flex_Ext	L4_L5_Lat_Bending	L4_L5_axial_rotation	L3_L4_Flex_Ext	L3_L4_Lat_Bending	L3_L4_axial_rotation	L2_L3_Flex_Ext	L2_L3_Lat_Bending	L2_L3_axial_rotation	L1_L2_Flex_Ext	L1_L2_Lat_Bending	L1_L2_axial_rotation	L1_T12_Flex_Ext	L1_T12_Lat_Bending	L1_T12_axial_rotation	Abs_r3	Abs_r2	Abs_r1	Abs_t1	Abs_t2	neck_flexion	neck_bending	neck_rotation	arm_flex_r	arm_add_r	arm_rot_r	elbow_flex_r	pro_sup_r	wrist_flex_r	wrist_dev_r	arm_flex_l	arm_add_l	arm_rot_l	elbow_flex_l	pro_sup_l	wrist_flex_l	wrist_dev_l
      1.71186441	      4.35177521	     -4.58164201	     94.73763336	      0.31216674	      1.04230908	      0.43892550	      2.38541013	     -1.97479060	      1.55765515	      5.89597968	      0.10290426	     21.64305254	     -1.72457426	      0.00000000	      2.91803727	      1.63975448	      8.54192516	      5.48171059	      0.09567390	     20.29260102	    -12.18810894	      0.00000000	      0.02033570	      0.02049150	      1.49145511	      0.03776542	      0.02725369	      1.58467105	      0.03340951	      0.04982303	      1.58467105	      0.02324167	      0.04982303	      1.30502322	      0.01888373	      0.04178627	      1.21180728	      0.01161982	      0.03174133	      1.11859133	      0.14525584	      0.23180394	      8.29502588	      0.00000000	      0.00000000	     20.63504366	     -1.12873636	     -3.42480126	     18.03482546	    -69.07271996	     64.92005512	     49.26682701	     87.84861463	     16.87746472	     -9.06044878	     -7.16676931	    -51.94788927	     46.38259106	     37.53173006	     87.04396985	     -3.00804959	    -15.49847806
      1.72881356	      4.29947680	     -4.62578657	     94.98046723	      0.31196177	      1.04247731	      0.43858268	      2.33300376	     -2.03262141	      1.37419501	      5.78279376	      0.10092879	     21.59503999	     -1.83595876	      0.00000000	      2.94228008	      1.70092764	      8.58425321	      5.57668103	      0.09733145	     20.26853451	    -12.11836638	      0.00000000	      0.03755063	     -0.00556798	      1.67000951	      0.06973528	     -0.00740542	      1.77438511	      0.06169194	     -0.01353799	      1.77438511	      0.04291662	     -0.01353799	      1.46125833	      0.03486952	     -0.01135423	      1.35688273	      0.02145643	     -0.00862480	      1.25250714	      0.26822042	     -0.06298613	      9.28809192	      0.00000000	      0.00000000	     20.75138076	     -0.51011506	     -4.60360654	     18.29685171	    -68.92009549	     65.79758377	     49.53814193	     88.30755838	     17.20251262	     -8.65870910	     -6.74962944	    -51.35894610	     46.40815687	     35.94721220	     86.74286420	     -2.56163804	    -14.50462927
      1.74576271	      4.31270977	     -4.38354386	     94.25490129	      0.31288096	      1.04301009	      0.43869884	      2.23894350	     -1.98531080	      1.81501697	      5.90670601	      0.10309147	     21.53328204	     -1.39793225	      0.00000000	      2.61907142	      1.62429788	      7.64687360	      5.58008956	      0.09739094	     20.15141622	    -12.06136774	      0.00000000	      0.01568534	     -0.01433595	      2.01794219	      0.02912924	     -0.01906681	      2.14406358	      0.02576944	     -0.03485642	      2.14406358	      0.01792677	     -0.03485642	      1.76569942	      0.01456540	     -0.02923387	      1.63957803	      0.00896260	     -0.02220638	      1.51345664	      0.11203879	     -0.16217111	     11.22318909	      0.00000000	      0.00000000	     20.24137026	     -1.99024747	     -7.61757205	     21.45167616	    -68.74534979	     70.57995177	     49.38131146	     88.16014479	     18.69488549	     -8.31503326	     -5.20627372	    -51.00455956	     47.58299895	     34.34057080	     85.35424439	      3.23508075	    -11.33168915
      1.76271186	      4.26455735	     -4.25726387	     94.25040367	      0.31299653	      1.04328672	      0.43873792	      2.10672415	     -2.02740186	      1.51901553	      5.91466328	      0.10323035	     21.50672329	     -1.09472520	      0.00000000	      2.51307298	      1.63169409	      6.99246808	      5.67873458	      0.09911262	     20.31089313	    -11.20459714	      0.00000000	      0.00890672	     -0.03225188	      1.99329238	      0.01654066	     -0.04289500	      2.11787315	      0.01463284	     -0.07841721	      2.11787315	      0.01017949	     -0.07841721	      1.74413083	      0.00827078	     -0.06576803	      1.61955006	      0.00508930	     -0.04995816	      1.49496928	      0.06361978	     -0.36483967	     11.08609422	      0.00000000	      0.00000000	     20.00015646	     -1.28232833	     -7.66229243	     30.34890889	    -67.46961728	     83.52901898	     48.16768622	     87.45899754	     17.08596398	    -12.30488951	     -7.13429100	    -50.25691163	     43.93332446	     33.09684949	     84.33802535	      4.65615738	     -9.50068876
      1.77966102	      4.18512044	     -4.24269126	     94.03027385	      0.31370977	      1.04337990	      0.43815010	      2.06183086	     -2.08264069	      1.84092001	      5.89370248	      0.10286451	     21.56980282	     -0.94965315	      0.00000000	      2.39716074	      1.67703775	      6.79776820	      5.58006011	      0.09739042	     20.30052239	    -11.32339293	      0.00000000	      0.01401881	     -0.06535415	      2.20366244	      0.02603433	     -0.08692102	      2.34139135	      0.02303150	     -0.15890208	      2.34139135	      0.01602210	     -0.15890208	      1.92820464	      0.01301787	     -0.13327018	      1.79047574	      0.00801035	     -0.10123358	      1.65274683	      0.10013496	     -0.73929920	     12.25610942	      0.00000000	      0.00000000	     19.86678348	     -1.63401738	     -9.49478105	     30.84426568	    -66.95020596	     84.32499379	     47.57900266	     86.32611849	     18.71854646	    -13.50711675	     -6.64031457	    -49.99334667	     44.03103998	     31.80639579	     83.99135741	      5.10486363	     -7.90979883
      1.79661017	      4.05511578	     -4.24795128	     93.65070807	      0.31412689	      1.04345458	      0.43742716	      2.05444380	     -2.19384593	      2.07327418	      5.87378705	      0.10251692	     21.59116429	     -1.01365281	      0.00000000	      2.28784432	      1.79655228	      6.55448890	      5.48733405	      0.09577205	     20.18610801	    -11.46384065	      0.00000000	      0.01804870	     -0.09671323	      2.41773607	      0.03351823	     -0.12862859	      2.56884457	      0.02965220	     -0.23514854	      2.56884457	      0.02062785	     -0.23514854	      2.11551906	      0.01676002	     -0.19721761	      1.96441056	      0.01031302	     -0.14980879	      1.81330205	      0.12892003	     -1.09403936	     13.44672269	      0.00000000	      0.00000000	     19.87435148	     -2.11554159	    -11.15612588	     31.11415565	    -66.53854751	     84.98493078	     46.79036578	     84.09649192	     20.23565299	    -14.86072559	     -6.19606951	    -49.71536890	     44.45965051	     30.66898147	     83.59499734	      5.11623656	     -6.20610048
      1.81355932	      3.91594773	     -4.33560803	     93.58746455	      0.31439337	      1.04343044	      0.43677404	      2.06189665	     -2.33554500	      2.22897632	      5.79054074	      0.10106400	     21.61175051	     -1.00182687	      0.00000000	      2.30101947	      1.92958372	      6.48386693	      5.40310619	      0.09430199	     20.12396331	    -11.53103332	      0.00000000	      0.02488932	     -0.13169553	      2.51928809	      0.04622196	     -0.17515506	      2.67674360	      0.04089067	     -0.32020452	      2.67674360	      0.02844601	     -0.32020452	      2.20437708	      0.02311222	     -0.26855353	      2.04692158	      0.01422176	     -0.20399638	      1.88946607	      0.17778193	     -1.48976621	     14.01152460	      0.00000000	      0.00000000	     20.17602736	     -2.21204144	    -11.93878912	     31.09677832	    -66.25040388	     84.82054148	     46.53716434	     82.54832293	     20.69199453	    -15.43039330	     -6.05740494	    -49.32726467	     44.62464223	     29.24292995	     83.47497549	      4.59494911	     -5.21041873
